<?xml version="1.0" standalone="no"?>
<!DOCTYPE svg PUBLIC "-//W3C//DTD SVG 20010904//EN"
 "http://www.w3.org/TR/2001/REC-SVG-20010904/DTD/svg10.dtd">
<svg version="1.0" xmlns="http://www.w3.org/2000/svg"
 width="1181.000000pt" height="1528.000000pt" viewBox="0 0 1181.000000 1528.000000"
 preserveAspectRatio="xMidYMid meet">

<g transform="translate(0.000000,1528.000000) scale(0.100000,-0.100000)"
fill="#000000" stroke="none">
<path d="M532 14628 c-18 -18 -17 -1361 1 -1376 18 -15 425 -18 439 -4 14 14
18 250 6 275 -5 10 -20 17 -38 17 -16 0 -40 4 -54 10 l-26 10 0 233 c0 231 0
234 23 255 18 17 36 22 75 22 29 0 68 7 87 14 29 12 35 20 35 44 0 60 23 141
46 163 33 31 113 34 157 5 l32 -22 3 -506 c2 -417 5 -508 16 -517 19 -16 953
-16 973 0 19 16 19 471 0 487 -7 6 -32 14 -56 18 -72 12 -71 6 -71 283 0 195
3 251 13 260 21 17 801 16 826 -1 67 -48 101 -89 101 -123 0 -9 11 -33 25 -53
14 -20 25 -49 25 -64 0 -15 5 -39 11 -55 l12 -28 9 30 c5 17 6 82 2 145 -5
104 -4 118 13 138 l18 24 448 -2 c391 -1 450 1 478 15 28 15 33 15 54 1 21
-14 67 -16 299 -16 157 0 277 -4 281 -9 8 -14 9 -536 1 -550 -4 -6 -31 -11
-60 -11 -28 0 -57 -5 -64 -12 -17 -17 -17 -459 0 -476 9 -9 125 -12 459 -12
373 0 448 2 458 14 9 10 12 85 12 252 1 234 0 239 -21 256 -12 10 -37 18 -56
18 -61 0 -65 17 -62 270 l3 223 26 19 c24 19 44 20 310 19 324 -1 359 -7 407
-71 14 -19 52 -65 84 -103 32 -37 58 -77 58 -90 0 -12 12 -40 25 -62 14 -22
25 -51 25 -65 0 -14 11 -47 23 -75 16 -32 26 -79 31 -134 17 -204 74 -198 100
12 7 56 20 116 28 132 9 17 19 49 23 70 6 40 15 64 74 186 31 64 119 163 168
188 38 19 201 14 269 -9 53 -18 65 -28 116 -93 66 -83 118 -176 118 -209 0
-13 9 -40 20 -61 11 -20 24 -65 29 -100 5 -34 16 -82 25 -105 9 -26 22 -128
32 -250 9 -114 21 -213 26 -219 7 -9 40 -13 99 -13 77 0 90 2 99 19 16 30 13
453 -3 475 -7 10 -31 20 -57 23 -25 3 -51 12 -57 21 -15 18 -19 498 -4 520 6
11 88 13 411 12 l403 -1 51 -44 c40 -34 54 -54 64 -91 7 -26 24 -60 37 -76 14
-16 25 -42 25 -58 0 -16 5 -32 10 -35 6 -4 10 41 10 128 0 198 -41 179 390
177 464 -1 450 3 553 -163 15 -25 27 -58 27 -75 0 -16 7 -49 16 -73 22 -62 35
-239 25 -355 -9 -111 -40 -233 -80 -311 -42 -84 -35 -87 148 -91 l151 -3 11
28 c16 42 8 435 -9 456 -8 9 -33 17 -60 19 l-47 3 -5 255 c-5 261 -1 310 28
310 10 1 110 0 224 0 168 -1 213 2 237 15 27 13 31 13 45 -1 9 -8 16 -30 16
-48 0 -19 7 -51 16 -72 9 -22 20 -71 24 -111 8 -79 34 -133 53 -114 8 8 14 68
17 161 3 81 9 152 13 157 8 8 391 23 413 16 28 -10 34 -59 34 -277 0 -216 -1
-224 -23 -257 -17 -26 -31 -35 -57 -37 -19 -2 -38 -9 -42 -15 -4 -7 -8 -114
-8 -238 0 -183 3 -229 14 -238 20 -17 362 -17 382 0 12 10 14 117 14 688 0
513 -3 680 -12 689 -17 17 -10529 17 -10546 0z m1221 -341 c39 -22 117 -115
117 -140 0 -8 12 -46 26 -83 25 -67 26 -75 22 -254 -3 -145 -7 -193 -20 -220
-9 -19 -19 -47 -22 -61 -14 -68 -133 -169 -198 -169 -51 0 -122 45 -160 102
-21 30 -38 60 -38 67 0 6 -12 39 -26 73 -25 60 -25 65 -22 257 3 188 5 199 31
262 44 103 104 165 187 190 30 9 53 3 103 -24z"/>
<path d="M1649 13963 c-19 -22 -25 -194 -9 -234 15 -36 44 -38 66 -4 13 19 15
45 12 126 -2 86 -6 103 -22 115 -25 18 -31 18 -47 -3z"/>
<path d="M5940 13760 c-19 -19 -20 -33 -20 -258 0 -172 3 -241 12 -250 8 -8
46 -12 105 -12 89 0 94 1 102 23 10 25 -2 166 -19 227 -6 19 -10 53 -10 75 0
22 -12 67 -25 100 -14 33 -25 65 -25 72 0 42 -85 58 -120 23z"/>
<path d="M8606 13761 c-30 -6 -30 -7 -47 -126 -10 -66 -18 -137 -18 -158 -1
-20 -10 -56 -20 -80 -11 -23 -25 -62 -31 -86 -16 -62 -5 -70 99 -72 72 -1 86
1 98 17 11 15 13 66 11 252 -3 218 -4 235 -22 248 -21 15 -25 15 -70 5z"/>
<path d="M3460 13740 c-18 -18 -20 -33 -20 -174 0 -140 -2 -156 -21 -180 -19
-24 -26 -26 -99 -26 -96 0 -104 9 -115 114 -8 79 -22 77 -32 -5 -3 -30 -15
-72 -26 -94 -28 -57 -35 -87 -26 -113 8 -22 10 -22 207 -22 141 0 201 3 210
12 9 9 12 77 12 244 0 198 -2 235 -16 248 -21 22 -50 20 -74 -4z"/>
<path d="M3892 13744 c-22 -15 -22 -19 -22 -248 0 -167 3 -235 12 -244 9 -9
71 -12 219 -12 175 0 210 2 223 16 14 13 16 48 16 227 0 236 -5 257 -60 257
-61 0 -60 3 -60 -174 0 -211 0 -210 -106 -213 -122 -4 -118 -11 -124 207 -4
146 -8 183 -20 190 -22 14 -53 12 -78 -6z"/>
<path d="M2646 13734 c-19 -19 -22 -143 -5 -192 12 -34 23 -40 89 -43 93 -5
106 13 103 141 -1 64 -4 77 -23 92 -30 24 -141 25 -164 2z"/>
<path d="M8018 13739 c-15 -8 -18 -25 -18 -103 0 -118 7 -128 91 -137 101 -10
109 -1 109 120 0 122 -7 131 -101 131 -35 0 -72 -5 -81 -11z"/>
<path d="M9046 13734 c-22 -21 -23 -216 -2 -233 9 -7 41 -11 82 -9 59 3 69 6
87 30 30 40 34 115 8 166 -12 23 -30 46 -40 52 -31 16 -117 12 -135 -6z"/>
<path d="M6948 13723 c-35 -42 -45 -73 -52 -151 -3 -45 -14 -116 -22 -158 -22
-105 -14 -118 37 -66 22 23 47 42 57 42 9 0 37 -25 61 -55 48 -60 56 -64 70
-37 12 23 -3 226 -22 282 -9 25 -18 57 -21 72 -8 35 -53 88 -75 88 -10 0 -25
-8 -33 -17z"/>
<path d="M10387 13733 c-14 -14 -6 -93 18 -173 14 -46 25 -100 25 -120 0 -47
19 -102 33 -97 20 6 25 48 26 199 1 179 -4 198 -57 198 -21 0 -42 -3 -45 -7z"/>
<path d="M10000 13280 c0 -11 5 -20 10 -20 6 0 10 9 10 20 0 11 -4 20 -10 20
-5 0 -10 -9 -10 -20z"/>
<path d="M549 13029 c-6 -3 -10 -263 -10 -655 l0 -649 3388 -5 c1863 -3 3392
-2 3396 1 5 4 -2 17 -16 30 -39 39 -64 81 -71 124 -4 21 -16 55 -25 75 -10 19
-21 62 -24 95 -15 138 -40 167 -106 121 -49 -35 -118 -34 -225 0 -68 22 -88
34 -123 73 -23 25 -42 51 -43 57 0 6 -9 19 -20 29 -10 9 -25 34 -31 54 -7 20
-20 47 -30 60 -11 13 -19 38 -19 55 0 17 -12 54 -25 81 -16 32 -25 68 -25 100
-1 60 -23 148 -38 153 -14 4 -28 -52 -37 -143 -4 -39 -15 -83 -25 -100 -10
-16 -21 -48 -25 -70 -7 -36 -29 -94 -59 -152 -9 -18 -152 -154 -216 -206 -15
-13 -582 -24 -628 -12 -12 3 -31 14 -42 25 -19 19 -20 34 -20 269 0 279 0 281
68 281 66 0 67 3 67 162 l0 143 -170 5 c-93 3 -176 1 -182 -4 -10 -6 -13 -104
-13 -428 0 -270 -4 -426 -10 -439 -10 -18 -26 -19 -493 -19 -265 0 -488 4
-495 8 -25 16 -32 81 -32 302 0 279 7 309 72 310 56 0 57 2 57 128 0 68 -4
121 -11 129 -15 18 -418 19 -418 1 0 -7 -1 -66 -3 -132 -2 -110 -1 -120 18
-132 17 -11 27 -11 53 -2 24 9 37 10 50 2 15 -10 17 -39 20 -297 2 -249 0
-287 -14 -301 -13 -14 -54 -16 -304 -16 -276 0 -290 1 -300 19 -15 28 -14 522
2 555 11 26 40 42 58 31 5 -3 22 1 38 9 l29 15 1 118 c0 66 -4 123 -10 131
-12 14 -323 18 -332 3 -3 -5 2 -26 12 -47 25 -57 25 -415 0 -489 -10 -27 -20
-77 -24 -110 -6 -55 -35 -118 -70 -150 -6 -5 -21 -27 -33 -47 l-23 -38 -433 0
c-386 0 -435 2 -450 16 -14 14 -16 50 -13 299 2 156 6 287 10 291 4 4 36 10
70 13 l63 6 -4 130 c-1 72 -4 131 -5 132 -7 7 -940 3 -948 -5 -5 -5 -7 -73 -6
-153 l3 -144 43 -3 c35 -3 45 -8 52 -27 5 -14 10 -128 10 -254 1 -183 -2 -236
-14 -265 l-15 -36 -270 0 c-258 0 -272 1 -291 20 -19 19 -20 33 -20 275 l0
254 31 16 c17 9 40 15 52 13 44 -5 47 5 47 157 0 86 -4 146 -10 150 -13 8
-399 12 -411 4z"/>
<path d="M4683 13022 c-9 -10 -12 -45 -10 -135 l2 -122 105 -3 c157 -4 145
-14 144 128 0 66 -4 124 -10 129 -15 16 -215 18 -231 3z"/>
<path d="M8610 13033 c-19 -3 -39 -8 -44 -13 -4 -4 -1 -37 8 -73 9 -35 17 -88
19 -118 2 -46 6 -55 29 -68 22 -13 29 -13 42 -2 13 11 16 36 16 135 0 112 -8
151 -29 144 -4 0 -22 -3 -41 -5z"/>
<path d="M10704 13023 c-9 -10 -12 -112 -12 -435 0 -393 -1 -423 -18 -435 -20
-14 -359 -19 -381 -5 -6 4 -19 27 -28 52 -9 25 -23 61 -30 80 -8 19 -14 52
-15 72 0 21 -11 67 -25 104 -14 36 -25 82 -25 100 0 19 -5 34 -11 34 -8 0 -9
-44 -4 -155 8 -170 1 -257 -21 -280 -13 -12 -53 -15 -229 -15 -247 0 -237 -4
-233 99 2 61 -7 89 -18 55 -13 -42 -64 -137 -78 -146 -6 -4 -70 -8 -141 -8
-137 0 -155 5 -155 44 0 12 -11 39 -25 61 -17 29 -24 55 -25 92 0 50 -15 181
-27 233 -11 53 -20 -14 -22 -183 -2 -160 -4 -172 -27 -208 l-24 -39 -269 0
c-310 0 -301 -3 -301 91 0 65 -8 82 -31 66 -15 -12 -22 -22 -72 -112 l-22 -40
-435 -5 -435 -5 -7 -71 c-4 -39 -16 -94 -28 -123 -11 -28 -20 -69 -20 -90 0
-27 -8 -49 -30 -76 -16 -20 -27 -41 -24 -46 3 -5 780 -9 1810 -9 l1804 0 0
655 c0 517 -3 655 -12 655 -174 7 -343 3 -354 -7z"/>
<path d="M5944 13018 c-11 -15 -11 -241 0 -275 11 -34 59 -31 83 5 45 66 62
117 65 197 l3 80 -71 3 c-49 2 -74 -1 -80 -10z"/>
<path d="M6914 13015 c-4 -8 -4 -55 -2 -104 4 -86 5 -91 42 -135 41 -51 47
-53 70 -30 23 22 20 53 -9 99 -13 22 -25 54 -25 71 0 18 -12 48 -30 72 -33 46
-38 49 -46 27z"/>
<path d="M7475 13018 c-3 -7 -6 -33 -7 -58 l-3 -45 43 -5 c56 -8 66 -20 72
-88 l5 -57 40 0 40 0 0 130 0 130 -93 3 c-68 2 -94 -1 -97 -10z"/>
<path d="M9714 13017 c-2 -7 -3 -67 -2 -133 l3 -119 40 0 40 0 3 124 c2 93 -1
126 -10 133 -20 12 -68 9 -74 -5z"/>
<path d="M10025 13019 c-4 -6 -8 -64 -9 -130 l-1 -120 36 -9 c40 -11 65 -6 73
15 5 13 -15 90 -33 122 -5 10 -11 39 -13 63 -2 25 -7 51 -12 58 -9 15 -32 16
-41 1z"/>
<path d="M9555 13011 c-3 -5 -1 -12 5 -16 5 -3 10 1 10 9 0 18 -6 21 -15 7z"/>
<path d="M9063 12974 c-9 -4 -13 -36 -13 -109 0 -110 6 -125 51 -125 13 0 35
-1 49 -2 25 -3 25 -3 28 89 2 83 1 93 -20 117 -23 25 -71 40 -95 30z"/>
<path d="M2666 12948 c-11 -16 -16 -46 -16 -104 0 -93 1 -94 84 -94 80 0 90
16 79 127 l-8 88 -62 3 c-54 3 -63 0 -77 -20z"/>
<path d="M8043 12960 c-13 -5 -24 -16 -24 -25 -6 -69 -4 -162 4 -172 6 -8 34
-13 73 -13 87 0 93 8 87 112 -2 46 -6 89 -8 96 -5 14 -98 16 -132 2z"/>
<path d="M7418 12704 c-5 -4 -8 -19 -8 -33 0 -14 -8 -48 -17 -74 -13 -36 -15
-52 -7 -65 23 -36 39 -19 48 50 9 66 -1 138 -16 122z"/>
<path d="M591 11436 c-8 -10 -10 -896 -8 -3437 l3 -3424 22 -80 c12 -44 22
-106 22 -137 0 -33 10 -90 25 -135 14 -43 25 -98 25 -123 0 -26 10 -66 23 -95
13 -27 27 -74 30 -103 3 -29 15 -68 27 -86 11 -19 20 -47 20 -63 0 -16 11 -44
25 -63 16 -22 25 -47 25 -71 0 -22 10 -50 25 -73 14 -20 25 -45 25 -55 0 -9
11 -32 25 -51 14 -19 25 -44 25 -56 0 -13 11 -35 25 -50 14 -15 25 -37 25 -49
0 -12 9 -34 20 -48 12 -14 26 -41 32 -59 6 -18 19 -44 30 -57 10 -13 18 -30
18 -37 0 -7 12 -28 27 -46 33 -39 49 -64 64 -98 6 -14 23 -38 39 -53 16 -16
41 -53 55 -82 14 -30 31 -58 39 -62 8 -4 34 -36 58 -69 93 -132 327 -406 360
-422 15 -7 41 -30 58 -52 17 -21 72 -75 123 -118 51 -44 122 -109 159 -144 38
-36 80 -71 95 -78 16 -8 52 -34 81 -59 64 -53 119 -91 132 -91 5 0 24 -12 42
-28 49 -40 96 -72 107 -72 6 0 25 -12 43 -28 41 -34 64 -48 108 -68 19 -9 44
-24 55 -34 11 -10 31 -21 45 -25 14 -4 38 -18 53 -31 16 -13 35 -24 43 -24 9
0 30 -11 48 -25 18 -14 41 -25 51 -25 9 0 30 -11 47 -25 16 -14 39 -25 50 -25
11 0 33 -11 50 -25 16 -14 38 -25 49 -25 11 0 37 -11 57 -25 20 -14 46 -25 58
-25 12 0 27 -7 34 -15 6 -8 35 -21 65 -29 29 -9 58 -22 64 -30 6 -8 28 -17 49
-21 20 -4 49 -15 63 -26 15 -11 47 -23 71 -28 24 -4 61 -18 83 -29 22 -12 48
-22 58 -22 10 0 35 -9 56 -20 22 -11 59 -22 83 -26 23 -3 58 -15 75 -25 18
-10 56 -21 84 -24 28 -3 68 -14 88 -24 20 -10 63 -22 96 -26 33 -4 76 -15 95
-25 19 -9 64 -20 99 -24 35 -4 84 -15 110 -25 25 -10 79 -21 119 -25 40 -3 98
-15 130 -25 31 -11 99 -22 149 -25 51 -3 128 -14 170 -25 48 -12 133 -22 219
-25 77 -3 194 -14 260 -23 171 -24 721 -25 884 -1 64 9 181 20 260 23 88 4
177 14 226 26 44 11 129 24 187 29 59 5 120 16 136 24 16 9 62 19 103 22 40 4
88 13 106 20 19 8 75 21 124 29 50 9 103 22 117 29 14 8 48 17 76 21 27 4 66
15 86 26 21 10 57 21 81 25 23 3 54 14 68 24 14 10 49 21 78 25 28 4 63 15 76
26 13 10 32 19 43 19 10 0 45 14 78 30 33 16 68 30 78 30 11 0 31 8 45 19 15
10 43 21 63 25 21 4 42 13 49 21 7 8 31 20 54 27 22 6 53 20 67 29 14 10 38
21 55 25 16 4 36 12 44 19 23 19 157 85 174 85 7 0 19 7 27 16 7 8 29 24 48
35 62 34 119 70 193 120 15 11 31 19 36 19 5 0 16 7 23 16 7 9 43 36 79 60 36
25 83 58 105 75 22 16 56 40 76 53 19 13 57 43 83 65 26 23 51 41 56 41 4 0
36 29 71 65 35 36 73 68 86 71 12 3 66 51 120 106 54 55 113 114 131 131 18
18 56 63 85 100 28 38 84 105 122 149 39 44 85 103 104 132 18 28 47 66 62 84
16 18 29 37 29 42 0 9 31 59 67 110 10 13 24 36 31 50 6 14 26 45 42 70 16 25
38 63 49 85 10 22 26 46 35 54 9 7 16 22 16 33 0 10 11 36 25 56 14 20 25 42
25 49 0 7 11 35 25 63 14 27 36 73 50 100 14 28 25 58 25 68 0 9 10 33 22 52
11 19 25 54 29 78 5 24 18 55 29 69 11 15 20 41 20 62 0 20 12 59 25 86 14 28
25 66 25 85 0 19 11 59 25 88 15 33 25 72 25 100 0 26 10 67 21 92 13 28 24
80 29 135 4 50 16 110 26 135 18 44 19 156 24 3530 3 1977 1 3490 -4 3498 -13
19 -10569 18 -10585 -2z m9779 -576 c13 -8 15 -335 15 -2842 0 -2661 -1 -2840
-18 -2950 -9 -64 -22 -178 -27 -255 -5 -76 -16 -163 -25 -193 -9 -30 -20 -93
-24 -140 -5 -47 -16 -99 -25 -116 -9 -17 -20 -62 -25 -100 -5 -38 -19 -87 -30
-109 -12 -21 -21 -52 -21 -68 0 -15 -11 -49 -25 -75 -14 -26 -25 -59 -25 -73
0 -14 -9 -38 -21 -53 -12 -15 -23 -46 -26 -69 -3 -23 -16 -56 -29 -74 -13 -17
-24 -38 -24 -45 0 -7 -12 -35 -25 -63 -14 -27 -25 -57 -25 -66 0 -9 -9 -27
-19 -41 -11 -13 -23 -36 -26 -50 -4 -15 -18 -36 -31 -49 -13 -12 -24 -33 -24
-45 0 -12 -11 -36 -25 -52 -14 -17 -25 -35 -25 -42 0 -7 -11 -25 -25 -42 -14
-16 -25 -40 -25 -53 0 -12 -7 -29 -17 -36 -9 -8 -25 -32 -35 -54 -31 -63 -44
-84 -71 -113 -13 -15 -28 -37 -32 -49 -3 -13 -10 -23 -15 -23 -5 0 -12 -9 -15
-20 -4 -12 -31 -49 -61 -85 -30 -35 -54 -67 -54 -70 0 -11 -76 -105 -132 -166
-16 -16 -28 -33 -28 -39 0 -5 -18 -21 -39 -34 -22 -14 -43 -35 -47 -48 -10
-34 -74 -106 -98 -112 -12 -3 -71 -53 -131 -112 -142 -137 -262 -244 -276
-244 -10 0 -36 -18 -99 -70 -34 -29 -99 -70 -109 -70 -5 0 -14 -7 -22 -16 -16
-19 -113 -84 -126 -84 -5 0 -18 -9 -29 -21 -10 -12 -33 -29 -50 -38 -97 -51
-133 -72 -138 -80 -3 -5 -21 -12 -40 -15 -19 -4 -45 -15 -57 -25 -13 -10 -41
-23 -61 -30 -20 -7 -41 -18 -48 -25 -6 -8 -27 -17 -47 -21 -20 -4 -48 -15 -61
-26 -14 -10 -36 -19 -49 -19 -14 0 -46 -11 -72 -24 -68 -35 -150 -67 -200 -77
-24 -5 -58 -18 -76 -29 -18 -11 -50 -20 -72 -20 -21 0 -57 -9 -78 -21 -22 -11
-75 -25 -117 -30 -43 -5 -100 -18 -128 -29 -28 -11 -72 -20 -98 -21 -26 0 -78
-9 -117 -20 -42 -12 -128 -24 -215 -29 -80 -6 -194 -17 -255 -26 -149 -23
-513 -22 -680 0 -66 9 -174 19 -240 22 -68 3 -151 14 -191 25 -39 11 -113 23
-165 28 -52 5 -110 16 -130 25 -20 8 -70 19 -111 24 -41 5 -89 17 -106 26 -17
9 -53 19 -79 22 -27 3 -68 14 -93 24 -25 10 -61 21 -80 25 -19 4 -53 15 -75
25 -22 10 -58 22 -80 26 -22 4 -52 15 -67 26 -15 11 -45 22 -65 25 -21 3 -48
14 -60 23 -13 10 -39 21 -58 24 -20 4 -50 15 -68 26 -18 10 -46 21 -63 25 -17
3 -46 17 -65 31 -18 13 -40 24 -49 24 -18 0 -136 55 -160 75 -8 7 -26 16 -40
20 -14 4 -37 16 -52 26 -14 11 -33 19 -41 19 -8 0 -27 10 -43 23 -36 28 -134
87 -145 87 -11 0 -75 41 -114 73 -18 15 -38 27 -45 27 -12 0 -39 19 -104 72
-19 16 -38 28 -43 28 -5 0 -25 16 -44 36 -18 20 -45 42 -59 49 -14 7 -47 34
-75 59 -27 25 -53 46 -57 46 -15 0 -146 117 -257 229 -62 64 -168 181 -234
260 -66 79 -127 151 -136 160 -26 27 -81 99 -81 106 0 7 -58 83 -76 100 -13
12 -59 88 -108 177 -20 36 -43 72 -51 78 -8 7 -15 20 -15 29 0 9 -12 34 -25
56 -14 22 -25 47 -25 56 0 9 -7 23 -17 30 -9 8 -25 32 -35 54 -11 22 -26 51
-34 65 -7 14 -14 36 -14 50 0 14 -12 43 -25 65 -14 22 -25 49 -25 60 0 11 -11
41 -25 67 -14 26 -25 60 -25 75 0 16 -9 46 -21 68 -12 21 -25 66 -30 100 -5
34 -17 81 -28 106 -12 25 -21 66 -21 94 0 28 -9 82 -20 120 -14 47 -24 123
-30 229 -6 88 -15 198 -21 245 -9 64 -11 848 -9 3000 1 1603 4 2920 7 2927 3
7 12 15 21 17 36 10 8887 7 8902 -3z"/>
<path d="M5819 10232 c-72 -44 -82 -51 -129 -77 -25 -14 -67 -39 -95 -55 -27
-16 -61 -33 -75 -39 -14 -6 -32 -15 -40 -21 -8 -5 -35 -20 -60 -33 -25 -13
-54 -28 -65 -34 -37 -21 -152 -73 -161 -73 -5 0 -20 -9 -34 -20 -14 -11 -32
-20 -41 -20 -9 0 -37 -11 -63 -25 -26 -14 -52 -25 -58 -25 -7 0 -30 -9 -52
-19 -52 -25 -167 -68 -226 -85 -25 -7 -59 -20 -77 -29 -18 -10 -41 -17 -53
-17 -11 0 -55 -11 -98 -24 -108 -35 -281 -71 -462 -98 -291 -43 -658 -28 -925
38 -33 8 -90 21 -128 29 -37 8 -80 21 -95 28 -15 8 -47 19 -72 25 -25 6 -63
20 -85 32 -21 11 -45 20 -53 20 -7 0 -30 9 -50 20 -20 10 -75 38 -122 60 -87
41 -157 79 -220 118 -19 12 -55 33 -80 47 -25 14 -65 39 -90 55 -25 16 -61 39
-80 50 -19 11 -42 25 -51 32 -9 6 -24 8 -33 5 -14 -6 -16 -15 -12 -49 3 -24 8
-117 11 -208 3 -91 10 -250 15 -355 6 -104 14 -392 20 -640 5 -247 16 -594 25
-770 8 -176 19 -527 25 -780 6 -253 14 -543 20 -645 5 -102 12 -259 15 -350
12 -319 25 -516 39 -595 8 -44 17 -109 20 -145 8 -84 51 -318 82 -442 13 -53
24 -105 24 -115 0 -10 11 -56 25 -103 14 -47 37 -123 51 -170 14 -47 34 -107
44 -135 10 -27 25 -70 33 -95 38 -110 59 -168 79 -210 11 -25 29 -63 39 -85
31 -71 150 -308 185 -370 18 -33 38 -69 43 -80 5 -12 16 -27 25 -34 9 -7 16
-18 16 -23 0 -10 82 -134 176 -267 140 -200 395 -471 614 -655 168 -140 173
-144 303 -233 210 -145 273 -182 527 -308 96 -47 192 -95 212 -106 20 -10 43
-19 51 -19 7 0 35 -11 63 -24 45 -22 71 -31 194 -73 25 -8 65 -23 90 -33 25
-10 61 -21 80 -25 19 -3 58 -15 85 -25 56 -20 138 -42 265 -70 47 -11 110 -26
140 -34 30 -8 80 -17 110 -21 30 -4 82 -13 114 -22 56 -14 64 -13 130 7 39 11
85 26 101 31 17 6 64 21 105 34 41 13 93 30 115 39 22 8 46 15 53 16 7 0 31 9
55 19 23 10 62 26 87 34 130 44 167 58 190 71 14 8 41 19 60 24 50 15 183 71
195 83 5 5 16 9 23 9 13 0 98 38 167 73 11 6 34 17 50 24 17 8 39 19 50 25 11
7 34 18 50 25 17 8 38 18 47 23 9 5 55 30 102 55 85 45 110 60 256 150 92 56
140 88 196 127 22 16 53 38 71 50 330 234 646 556 884 903 31 44 59 87 62 95
4 8 21 35 37 60 34 52 54 89 137 255 87 171 142 298 170 390 8 28 19 55 23 60
5 6 15 38 24 71 9 34 23 74 31 90 8 16 15 39 15 52 0 13 11 56 24 95 13 40 27
94 31 120 3 27 13 67 21 90 8 23 21 84 29 137 8 52 19 111 25 130 6 19 17 89
25 155 7 66 22 167 32 225 17 100 18 216 18 2285 0 2108 -1 2180 -18 2183 -11
2 -29 -6 -43 -18 -13 -13 -32 -28 -42 -34 -18 -11 -60 -38 -147 -95 -22 -15
-76 -48 -120 -75 -44 -26 -87 -51 -95 -56 -8 -5 -31 -16 -50 -25 -19 -8 -42
-19 -50 -24 -17 -10 -111 -50 -190 -80 -165 -63 -435 -114 -655 -125 -276 -14
-705 54 -1015 160 -25 8 -65 21 -90 28 -25 7 -58 20 -75 28 -16 9 -45 19 -64
23 -19 4 -48 16 -65 26 -17 10 -38 19 -46 19 -8 0 -42 14 -75 30 -33 16 -67
30 -75 30 -8 0 -26 9 -40 20 -14 11 -29 20 -35 20 -9 0 -123 52 -155 72 -8 4
-31 15 -50 23 -19 9 -42 20 -50 25 -8 6 -33 20 -55 31 -22 12 -62 34 -90 49
-27 16 -64 36 -82 44 -17 9 -48 27 -69 41 -47 32 -70 31 -125 -3z m138 -448
c20 -13 41 -24 48 -24 7 0 18 -7 25 -14 6 -8 28 -20 48 -27 20 -7 47 -20 60
-30 13 -10 36 -20 52 -24 16 -3 34 -13 40 -20 6 -8 28 -19 48 -26 20 -6 44
-17 52 -24 8 -7 26 -16 40 -20 14 -4 48 -17 75 -30 28 -12 76 -34 108 -49 31
-14 63 -26 69 -26 6 0 30 -9 52 -19 55 -26 147 -59 226 -80 36 -10 75 -23 87
-29 12 -7 45 -17 75 -23 29 -6 80 -19 113 -29 93 -28 304 -67 485 -90 197 -24
468 -27 610 -6 52 8 132 19 176 25 79 10 190 36 284 67 25 8 72 23 105 34 92
28 184 65 197 78 18 18 56 14 68 -7 14 -27 14 -3249 -1 -3501 -5 -102 -17
-225 -25 -275 -9 -49 -22 -142 -30 -206 -7 -64 -18 -129 -24 -144 -6 -15 -15
-62 -21 -104 -5 -42 -18 -103 -29 -136 -10 -33 -22 -80 -26 -105 -3 -24 -14
-62 -24 -85 -9 -22 -20 -58 -24 -80 -4 -22 -16 -60 -25 -85 -10 -25 -26 -67
-35 -95 -10 -27 -26 -74 -37 -104 -10 -30 -23 -59 -28 -65 -5 -6 -12 -22 -16
-36 -12 -40 -111 -242 -165 -336 -28 -48 -50 -88 -50 -90 0 -2 -35 -54 -140
-208 -8 -11 -65 -82 -126 -156 -150 -181 -328 -352 -524 -502 -82 -63 -307
-217 -362 -248 -14 -8 -44 -25 -65 -38 -159 -94 -539 -285 -612 -307 -14 -4
-38 -16 -55 -26 -17 -11 -39 -19 -49 -19 -10 0 -39 -11 -65 -25 -26 -14 -54
-25 -62 -25 -8 0 -31 -9 -51 -19 -20 -11 -56 -25 -80 -31 -24 -6 -53 -17 -64
-25 -11 -7 -36 -15 -55 -19 -19 -4 -55 -15 -80 -26 -103 -42 -325 -105 -340
-95 -4 3 -43 10 -86 15 -44 6 -99 17 -124 25 -25 8 -80 21 -122 29 -43 8 -86
20 -97 25 -11 6 -48 18 -83 26 -77 17 -178 50 -236 76 -23 10 -50 19 -60 19
-9 0 -39 11 -67 25 -27 13 -55 25 -61 25 -11 0 -48 16 -204 87 -30 14 -62 29
-70 34 -8 5 -25 14 -37 19 -48 21 -70 32 -118 60 -27 16 -68 38 -90 50 -22 11
-60 34 -85 50 -25 16 -61 38 -81 49 -19 11 -41 27 -48 35 -8 9 -18 16 -23 16
-13 0 -186 129 -293 219 -123 103 -343 325 -440 443 -129 157 -156 194 -300
418 -43 66 -112 195 -170 315 -31 66 -68 143 -81 170 -13 28 -24 56 -24 64 0
7 -7 25 -15 39 -19 34 -62 150 -82 222 -8 30 -21 66 -28 80 -7 14 -16 45 -20
70 -4 25 -13 56 -20 70 -8 14 -18 54 -25 88 -6 34 -19 88 -29 120 -10 31 -21
85 -25 120 -4 34 -14 81 -22 104 -8 23 -19 85 -24 138 -6 52 -19 149 -29 215
-12 71 -24 225 -31 375 -6 140 -15 341 -20 445 -6 105 -14 395 -20 645 -5 250
-12 507 -15 570 -3 63 -10 205 -15 315 -6 110 -15 407 -20 660 -5 253 -12 499
-16 548 -7 94 1 117 38 117 11 0 31 -9 45 -20 14 -11 33 -20 41 -20 8 0 38
-11 66 -24 56 -26 120 -49 211 -76 33 -10 78 -25 100 -34 22 -8 49 -15 61 -16
11 0 54 -9 95 -20 41 -11 126 -27 189 -35 63 -8 147 -19 185 -25 107 -15 475
-12 585 4 52 8 129 18 170 21 69 6 219 36 350 69 30 8 75 20 100 26 82 21 214
62 275 86 33 13 67 24 75 24 8 0 38 12 65 25 28 14 56 25 63 25 7 0 34 11 60
25 26 14 53 25 61 25 7 0 30 9 50 19 20 10 63 31 96 46 79 36 327 159 395 197
27 14 112 63 134 75 25 15 45 10 93 -23z"/>
<path d="M6165 8798 c-539 -4 -1134 -11 -1323 -15 l-343 -8 -56 -60 c-30 -33
-74 -85 -97 -115 -22 -30 -47 -61 -53 -68 -7 -7 -13 -16 -13 -20 0 -4 -32 -41
-71 -82 -38 -41 -84 -94 -102 -118 -18 -24 -55 -72 -83 -106 -73 -89 -86 -116
-73 -157 6 -19 14 -227 19 -464 5 -236 14 -477 20 -535 23 -229 30 -342 30
-495 0 -169 8 -207 45 -213 11 -2 34 -15 52 -28 17 -13 40 -24 51 -24 10 0 29
-11 42 -25 13 -14 34 -25 46 -25 12 0 42 -16 66 -36 l43 -36 6 -122 c5 -85 13
-139 28 -180 11 -33 21 -79 21 -103 0 -29 9 -60 24 -86 13 -23 27 -58 30 -78
4 -21 13 -42 21 -49 8 -6 19 -28 26 -48 21 -65 150 -285 206 -352 77 -91 281
-300 293 -300 6 0 22 -11 35 -24 25 -25 52 -42 115 -71 19 -10 52 -26 72 -36
20 -10 50 -19 67 -19 60 0 62 -11 59 -236 -2 -138 -7 -207 -15 -215 -8 -8 -75
-12 -220 -13 l-208 -1 -3 -494 c-1 -278 2 -499 7 -504 16 -16 1120 -25 1651
-12 204 5 237 8 248 22 19 26 18 966 -2 982 -10 8 -80 11 -236 10 -177 -1
-224 2 -231 12 -5 8 -8 109 -6 224 l2 210 65 9 c36 4 77 17 92 27 14 11 35 19
46 19 11 0 33 10 49 23 15 13 51 37 79 55 57 36 291 274 305 310 5 14 19 36
30 51 34 44 69 101 69 113 0 6 11 26 25 44 14 18 25 40 25 49 0 10 11 30 25
47 14 16 25 39 25 51 0 12 11 40 25 62 13 22 25 53 25 68 0 15 11 50 25 77 16
32 25 66 25 98 0 26 9 88 20 138 11 49 20 124 20 166 0 67 3 80 25 107 19 22
38 32 71 37 24 3 54 14 67 24 12 9 40 20 62 23 65 10 81 37 88 153 3 55 13
133 22 174 9 43 20 163 25 280 5 118 16 239 25 285 10 46 20 162 25 270 4 119
16 240 30 323 l23 133 -22 29 c-11 16 -21 34 -21 39 0 6 -13 25 -28 43 -15 18
-33 44 -40 58 -22 46 -53 95 -67 105 -7 6 -20 26 -29 45 -9 19 -34 60 -56 90
-22 30 -40 60 -40 67 0 7 -9 20 -19 30 -20 19 -54 73 -72 113 -5 14 -21 36
-34 50 -13 14 -29 36 -34 50 -19 44 -53 94 -71 107 -10 7 -21 24 -24 37 -4 18
-16 28 -44 35 -20 6 -39 10 -42 9 -3 -1 -446 -5 -985 -10z m445 -688 c91 -5
291 -14 445 -20 250 -10 282 -13 299 -30 18 -17 18 -28 7 -256 -9 -181 -16
-254 -31 -299 -10 -33 -22 -85 -25 -115 -4 -30 -13 -64 -20 -76 -8 -12 -19
-49 -25 -83 -6 -34 -22 -78 -35 -98 -14 -20 -25 -44 -25 -54 0 -10 -20 -47
-45 -83 -25 -37 -45 -73 -45 -82 0 -9 -24 -39 -52 -68 -29 -28 -79 -79 -111
-111 -123 -128 -122 -127 -159 -112 -34 14 -202 185 -260 264 -18 24 -52 68
-75 96 -23 29 -58 86 -78 127 -21 41 -46 91 -56 111 -10 20 -19 46 -19 56 0
11 -11 41 -25 67 -14 26 -25 58 -25 70 0 13 -12 64 -26 112 -24 84 -26 103
-27 332 -2 206 0 244 13 252 19 12 185 12 400 0z m-1156 -45 c12 -12 14 -33
10 -100 -2 -47 -6 -123 -8 -170 -3 -46 -10 -94 -16 -105 -6 -11 -17 -69 -24
-129 -8 -59 -21 -121 -29 -137 -8 -16 -18 -52 -22 -79 -4 -28 -15 -61 -25 -75
-9 -14 -21 -45 -25 -69 -4 -23 -26 -80 -50 -125 -23 -45 -46 -93 -50 -106 -4
-13 -27 -47 -51 -77 -24 -30 -44 -63 -44 -73 0 -11 -9 -28 -21 -38 -11 -9 -41
-47 -65 -84 -59 -90 -139 -168 -172 -168 -26 0 -122 75 -172 135 -14 16 -49
52 -77 79 -29 27 -53 54 -53 61 0 7 -8 23 -19 36 -10 13 -39 65 -65 114 -26
50 -51 94 -57 100 -5 5 -9 18 -9 30 0 11 -9 35 -20 52 -11 18 -24 63 -30 100
-6 38 -18 82 -26 98 -9 17 -20 80 -25 140 -6 61 -17 139 -26 175 -21 86 -31
394 -13 415 11 13 90 15 591 15 504 0 580 -2 593 -15z"/>
</g>
</svg>
